<svg width="36" height="32" viewBox="0 0 36 32" fill="none" xmlns="http://www.w3.org/2000/svg">
<path d="M33.9274 6.01248H27.8123V1.61248C27.8123 0.883753 27.221 0.29248 26.4923 0.29248H4.97541C2.66713 0.29248 0.79541 2.1642 0.79541 4.47248V27.5276C0.79541 29.8359 2.66713 31.7076 4.97541 31.7076H33.9278C34.6566 31.7076 35.2478 31.1163 35.2478 30.3876V7.33248C35.2478 6.60375 34.6566 6.01248 33.9278 6.01248H33.9274ZM3.39229 4.47248C3.39229 3.6217 4.08151 2.93248 4.93229 2.93248H25.1723V6.01248H4.97541C4.55947 6.02451 4.15727 5.86639 3.85821 5.57764C3.56086 5.28717 3.39242 4.88842 3.39242 4.47249L3.39229 4.47248ZM26.7998 21.6325C25.5538 21.6325 24.4314 20.8814 23.9536 19.7315C23.4775 18.58 23.7404 17.2548 24.6222 16.3748C25.5022 15.4931 26.8273 15.2301 27.9789 15.7063C29.1287 16.184 29.8798 17.3064 29.8798 18.5525C29.8798 19.3689 29.555 20.1527 28.9775 20.7302C28.3999 21.3077 27.6162 21.6325 26.7998 21.6325L26.7998 21.6325Z" fill="#19283B"/>
</svg>
