<svg width="34" height="36" viewBox="0 0 34 36" fill="none" xmlns="http://www.w3.org/2000/svg">
<path d="M32.7861 16.2451L17.7861 1.24513C17.203 0.673255 16.2692 0.673255 15.6861 1.24513L0.686124 16.2451C0.292375 16.667 0.174252 17.2801 0.386124 17.8182C0.597996 18.3564 1.09864 18.7239 1.67612 18.7651H3.50612V33.7651C3.50612 34.1626 3.66362 34.5451 3.94487 34.8264C4.22612 35.1076 4.60862 35.2651 5.0061 35.2651H13.4061V25.2C13.4061 24.3712 14.0773 23.7 14.9061 23.7H18.5361C18.9336 23.7 19.3161 23.8575 19.5973 24.1387C19.8786 24.42 20.0361 24.8025 20.0361 25.2V35.2502H28.4361C28.8336 35.2502 29.2161 35.0927 29.4973 34.8115C29.7786 34.5302 29.9361 34.1477 29.9361 33.7502V18.7502H31.8411C32.4036 18.6902 32.8836 18.3171 33.0842 17.7884C33.2829 17.2596 33.1686 16.6615 32.7861 16.2453L32.7861 16.2451Z" fill="#1EAEE1"/>
</svg>
