<svg width="48" height="48" viewBox="0 0 48 48" fill="none" xmlns="http://www.w3.org/2000/svg">
<path d="M40.1099 22.2451L25.1099 7.24507C24.5268 6.67319 23.593 6.67319 23.0099 7.24507L8.00985 22.2451C7.61611 22.6669 7.49798 23.28 7.70985 23.8182C7.92173 24.3563 8.42237 24.7238 8.99985 24.7651H10.8299V39.7651C10.8299 40.1626 10.9874 40.5451 11.2686 40.8263C11.5499 41.1076 11.9323 41.2651 12.3298 41.2651H20.7298V31.1999C20.7298 30.3712 21.4011 29.6999 22.2298 29.6999H25.8598C26.2573 29.6999 26.6398 29.8574 26.9211 30.1387C27.2023 30.4199 27.3598 30.8024 27.3598 31.1999V41.2502H35.7598C36.1573 41.2502 36.5398 41.0927 36.821 40.8114C37.1023 40.5302 37.2598 40.1477 37.2598 39.7502V24.7502H39.1648C39.7273 24.6902 40.2073 24.317 40.4079 23.7883C40.6067 23.2595 40.4923 22.6614 40.1098 22.2452L40.1099 22.2451Z" fill="#1EAEE1"/>
</svg>
