<svg width="39" height="36" viewBox="0 0 39 36" fill="none" xmlns="http://www.w3.org/2000/svg">
<path d="M16.48 21.8408C16.3597 21.8408 16.2394 21.8407 16.1206 21.8001V34.3593C16.1206 34.7593 16.4409 35.0796 16.8409 35.0796C17.2409 35.0796 17.5612 34.7593 17.5612 34.3593V21.5593C17.5206 21.6 17.4816 21.5999 17.4409 21.639C17.1206 21.7593 16.8003 21.8406 16.48 21.8406L16.48 21.8408Z" fill="#19283B"/>
<path d="M16.1206 14.7592C16.0409 14.5999 15.9206 14.4389 15.8003 14.2796L13.4003 11.8796C12.6003 11.0796 11.5597 10.6389 10.4003 10.6389H7.44095C6.44095 10.6389 5.44095 10.9186 4.56127 11.4796L0.640953 13.9202C0.0409528 14.3999 -0.199687 15.2796 0.200313 15.9999L2.60031 20.1591C3.04095 20.8794 3.95967 21.1591 4.67999 20.7184C4.92062 20.5981 5.07999 20.3981 5.20031 20.1981L4.95969 33.3981C4.95969 34.2778 5.63937 35.0388 6.55969 35.0388C7.43937 35.0388 8.20033 34.3591 8.20033 33.4388L8.40033 23.3592H9.55969L9.75969 33.4388C9.75969 34.3184 10.48 35.0388 11.3597 35.0388H11.4003C12.28 35.0388 13.0003 34.2794 13.0003 33.3981L12.6409 15.3981L13.4409 16.1981L15.0816 19.9981C15.3222 20.5575 15.8816 20.9184 16.4816 20.9184C16.6816 20.9184 16.8816 20.8778 17.0816 20.7981C17.8409 20.4778 18.2019 19.5575 17.8816 18.7981L16.1206 14.7592ZM5.24102 18.6405L3.60038 15.7608L5.3207 14.6811L5.24102 18.6405Z" fill="#19283B"/>
<path d="M5.35938 6.04077C5.35938 8.04077 6.95938 9.64077 8.95937 9.64077C10.9594 9.64077 12.5594 8.04077 12.5594 6.04077C11.6391 6.20015 10.4391 6.32046 8.95937 6.32046C7.4797 6.32046 6.32029 6.24077 5.35938 6.04077Z" fill="#19283B"/>
<path d="M8.95931 5.44088C11.7187 5.44088 14.0001 5.00024 14.0001 4.44088C14.0001 4.16119 13.3204 3.88152 12.2798 3.68152L11.6798 1.88152C11.5204 1.40184 11.0798 1.08152 10.5595 1.08152L7.40011 1.07996C6.92043 1.07996 6.44075 1.40027 6.27979 1.87996L5.67979 3.67996C4.63915 3.87996 3.95947 4.1206 3.95947 4.43932C3.95947 4.95964 6.20011 5.44088 8.95947 5.44088L8.95931 5.44088Z" fill="#19283B"/>
<path d="M21.6002 22.0796C21.5596 22.0796 21.5596 22.0796 21.5205 22.0389V34.3593C21.5205 34.7593 21.8408 35.0797 22.2408 35.0797C22.6408 35.0797 22.9611 34.7594 22.9611 34.3593L22.9596 22.1201C22.5205 22.2405 22.0408 22.2405 21.6002 22.0795L21.6002 22.0796Z" fill="#19283B"/>
<path d="M37.3208 13.9591L33.8004 11.6404C33.1208 11.1997 32.3208 10.9607 31.4801 10.9607H28.0801C26.8801 10.9607 25.7208 11.481 24.9208 12.4013L22.4411 15.281C22.3208 15.4404 22.2411 15.6013 22.0817 16.0013L21.002 19.281C20.7614 19.9607 21.002 20.8013 21.6817 21.1607C21.9223 21.281 22.1614 21.3607 22.402 21.3607C23.002 21.3607 23.602 20.9607 23.802 20.3607L24.9224 17.0404L26.4817 15.1997V16.5201C26.4817 17.0404 26.402 17.5607 26.2817 18.0794L24.0005 26.7998C23.8802 27.1998 24.0005 27.6405 24.2411 27.9592C24.4817 28.2795 24.8817 28.4795 25.3208 28.4795H25.7614L25.3614 33.3203C25.2817 34.2406 25.9614 35.0406 26.8817 35.0797H27.0021C27.8427 35.0797 28.5224 34.439 28.6021 33.6L29.0005 28.4796H30.1208L30.5599 33.6C30.6396 34.5593 31.5599 35.2797 32.5599 35.0406C33.3192 34.8406 33.8396 34.0813 33.7599 33.2813L33.3599 28.4813L33.8005 28.4797C34.2005 28.4797 34.6005 28.2797 34.8802 27.9594C35.1208 27.6391 35.2396 27.2 35.1208 26.8L33.5208 20.4796C33.7615 20.7202 34.0411 20.8796 34.4802 20.8796C35.1208 20.8796 35.6802 20.4796 35.9599 19.8796L37.8802 15.8C38.1599 15.1594 37.9599 14.3594 37.3208 13.9594L37.3208 13.9591ZM33.2004 18.7999C33.1597 18.8796 33.1597 18.9202 33.1207 18.9999L32.8801 18.0406C32.7597 17.5203 32.6801 16.9999 32.6801 16.4812V14.4406L34.6394 15.7203L33.2004 18.7999Z" fill="#19283B"/>
<path d="M29.5593 9.9204C31.5593 9.9204 33.1593 8.3204 33.1593 6.3204C33.1593 4.87976 32.3187 3.64072 31.0797 3.07976C31.239 2.87976 31.3203 2.63912 31.3203 2.35944C31.3203 1.55944 30.5203 0.879761 29.5609 0.879761C28.6 0.879761 27.8 1.55944 27.8 2.35944C27.8 2.63913 27.8797 2.87976 28.0406 3.07976C26.8 3.63912 25.9609 4.87976 25.9609 6.3204C25.9594 8.3204 27.6 9.9204 29.5594 9.9204H29.5593Z" fill="#19283B"/>
</svg>
