<svg width="34" height="34" viewBox="0 0 34 34" fill="none" xmlns="http://www.w3.org/2000/svg">
<path d="M23.8018 19.5414C19.8809 19.5414 16.7334 22.6891 16.7334 26.6098C16.7334 30.5306 19.881 33.6782 23.8018 33.6782C27.7225 33.6782 30.8701 30.5306 30.8701 26.6098C30.8701 22.6891 27.7225 19.5414 23.8018 19.5414ZM26.2315 30.3097C25.7345 30.6411 25.1271 30.8067 24.4644 30.862V31.8007H23.0839V30.8067C22.9182 30.7515 22.7526 30.7515 22.5317 30.6963C21.5377 30.4202 20.8198 29.8127 20.4333 29.0396C20.4333 28.9844 20.0467 27.8247 20.1019 27.7143H20.1572H20.7094H21.3168C21.4273 27.7143 21.7586 27.6591 21.869 27.7143C21.9795 27.8247 22.0347 28.2665 22.1451 28.4322C22.366 28.9291 22.8078 29.2053 23.36 29.3157C23.8018 29.3709 24.2988 29.3157 24.7405 29.1501C24.9614 29.0396 25.1823 28.9292 25.2375 28.7083C25.348 28.5426 25.348 28.3769 25.2927 28.2113C25.1823 27.88 24.6853 27.7143 24.4092 27.6038L23.0287 27.2725C22.4212 27.1069 21.8138 26.8859 21.372 26.4442C20.6542 25.7815 20.4885 24.6771 20.8751 23.8487C21.0959 23.407 21.4273 23.0756 21.869 22.7995C22.2004 22.5786 22.5869 22.4682 23.0287 22.3577V21.3638H24.4092V22.3577C24.9614 22.413 25.4584 22.6339 25.9002 22.91C26.7285 23.4069 27.2255 24.2905 27.2807 25.174V25.2292H25.7345H25.6241C25.5689 25.2292 25.5689 25.2292 25.5136 25.174C25.4032 25.1188 25.4032 25.0084 25.4032 24.8979V24.8427C25.348 24.5666 25.1823 24.2905 24.9062 24.1248C24.4092 23.7935 23.6361 23.6831 23.0839 23.9592C22.8078 24.0696 22.6421 24.3457 22.5869 24.5666C22.5317 24.9532 22.8078 25.2293 23.0839 25.395C23.1944 25.5606 24.4644 25.8367 24.4644 25.8367H24.6301C25.0167 25.892 25.348 25.9472 25.7345 26.0576C26.6181 26.389 27.2255 27.1069 27.3912 27.8799C27.5568 28.8187 27.0599 29.8127 26.2315 30.3097L26.2315 30.3097Z" fill="#1EAEE1"/>
<path d="M32.5807 12.1971L20.432 1.3737C18.444 -0.448591 15.1307 -0.448591 13.1427 1.31848L0.993988 12.1419C0.33133 12.7494 0 13.5224 0 14.3508C0 15.1791 0.386569 15.9522 0.993988 16.5596C1.60144 17.1119 2.42975 17.4432 3.31329 17.4432C3.86551 17.4432 4.47293 17.3327 4.9147 17.0566V17.1671V29.8127H4.08636C3.64459 29.8127 3.31326 30.3097 3.31326 30.9171C3.31326 31.5246 3.64459 32.0216 4.08636 32.0216H18.0573C16.732 30.5858 15.9037 28.7083 15.9037 26.5546C15.9037 22.192 19.4379 18.6026 23.8556 18.6026C25.6779 18.6026 27.3346 19.2101 28.7151 20.2593V17.1117V17.0012C29.2121 17.2773 29.8195 17.3878 30.3717 17.3878C31.2001 17.3878 32.0284 17.1117 32.691 16.5043C33.3537 15.8968 33.685 15.1237 33.685 14.2954C33.5746 13.5223 33.2432 12.7492 32.5806 12.197L32.5807 12.1971ZM12.9218 29.8129H7.39969V22.5237C7.39969 21.1431 8.61457 20.0387 10.1608 20.0387C10.9339 20.0387 11.5965 20.3148 12.1487 20.7566C12.6457 21.1983 12.9771 21.8058 12.9771 22.5237V29.8129H12.9218ZM31.5314 14.7926C31.4762 14.9031 31.3658 15.0135 31.2553 15.124C30.7031 15.6209 29.8196 15.6209 29.3225 15.124L18.2231 5.18408C17.45 4.46622 16.2351 4.46622 15.4068 5.18408L4.30734 15.124C4.03123 15.3449 3.69988 15.4553 3.31335 15.4553C2.92681 15.4553 2.59548 15.3449 2.31936 15.124C2.09847 14.9031 1.98803 14.6822 1.98803 14.4061C1.98803 14.13 2.09847 13.9091 2.31936 13.6882L14.4681 2.86481C15.7382 1.76038 17.8918 1.76038 19.1067 2.86481L31.2555 13.6882C31.4763 13.9091 31.5868 14.13 31.5868 14.4061C31.5868 14.5165 31.5868 14.627 31.5316 14.7927L31.5314 14.7926Z" fill="#1EAEE1"/>
</svg>
