<svg width="40" height="40" viewBox="0 0 40 40" fill="none" xmlns="http://www.w3.org/2000/svg">
<path d="M21.4287 2.69918V1.43573C21.4287 0.642474 20.7894 0 20.0001 0C19.2108 0 18.5715 0.642474 18.5715 1.43573V2.68484C13.9447 2.90739 9.51456 4.63028 5.94288 7.59528C2.24106 10.587 0.0608003 15.0827 0 19.8567C0.00357122 20.5189 0.457145 21.0914 1.0982 21.2457C1.73747 21.3983 2.40001 21.0914 2.69999 20.5027C4.2893 20.0056 5.9518 19.7867 7.6143 19.8567C9.28214 19.7867 10.9483 20.0056 12.5428 20.5027C12.7838 20.9909 13.2803 21.2978 13.8214 21.2978C14.3624 21.2978 14.8589 20.9909 15.1 20.5027C16.2214 20.1294 17.391 19.9267 18.5714 19.8997V35.6928C18.5714 36.4861 17.9321 37.1285 17.1428 37.1285C16.3535 37.1285 15.7143 36.4861 15.7143 35.6928V34.2571C15.7143 33.4638 15.075 32.8213 14.2857 32.8213C13.4964 32.8213 12.8571 33.4638 12.8571 34.2571V35.6928C12.8571 38.0707 14.7768 40 17.1428 40C19.5089 40 21.4286 38.0707 21.4286 35.6928V19.8997C22.6143 19.9249 23.7893 20.1276 24.9143 20.5027C25.1554 20.9909 25.6518 21.2978 26.1929 21.2978C26.734 21.2978 27.2304 20.9909 27.4715 20.5027C29.0661 20.0056 30.7322 19.7867 32.4 19.8567C34.0625 19.7867 35.725 20.0056 37.3143 20.5027C37.6214 21.0752 38.275 21.3696 38.9036 21.217C39.5339 21.0663 39.984 20.5081 40 19.8567C40 10.7828 31.7857 3.3309 21.4287 2.69918ZM32.386 17.0565C30.277 16.9488 28.1681 17.2701 26.1862 18.0041C24.2147 17.2468 22.1094 16.9004 20.0005 16.9847C17.8969 16.877 15.7916 17.1983 13.8149 17.9323C11.8328 17.1983 9.72384 16.877 7.61512 16.9847C6.10618 16.9596 4.59723 17.0888 3.11508 17.3724C3.78831 14.3896 5.43829 11.719 7.80081 9.79168C11.2347 6.9543 15.5563 5.42705 20.0011 5.48448C28.4441 5.48448 35.4869 10.6246 36.8871 17.3581C35.4032 17.0799 33.896 16.9543 32.3871 16.9848L32.386 17.0565Z" fill="#1EAEE1"/>
</svg>
