<svg width="48" height="36" viewBox="0 0 48 36" fill="none" xmlns="http://www.w3.org/2000/svg">
<path d="M9.75121 2.74958C9.75121 3.53111 9.46317 4.0805 9.05934 4.43954C8.64632 4.80676 8.0815 5.00109 7.50036 5.00109C6.91921 5.00109 6.3544 4.80676 5.94138 4.43954C5.53755 4.0805 5.24951 3.53111 5.24951 2.74958C5.24951 1.96881 5.53745 1.41994 5.94125 1.06118C6.35426 0.694223 6.91912 0.5 7.50036 0.5C8.0816 0.5 8.64646 0.694223 9.05947 1.06118C9.46326 1.41994 9.75121 1.96881 9.75121 2.74958Z" fill="#19283B" stroke="black"/>
<path d="M27.6251 4.12638C27.6251 4.90723 27.3373 5.45613 26.9337 5.81486C26.5209 6.18178 25.9564 6.37596 25.3755 6.37596C24.7947 6.37596 24.2302 6.18178 23.8174 5.81486C23.4138 5.45613 23.126 4.90723 23.126 4.12638C23.126 3.34477 23.4139 2.79536 23.8175 2.43634C24.2303 2.06916 24.7948 1.87488 25.3755 1.87488C25.9563 1.87488 26.5208 2.06916 26.9335 2.43634C27.3372 2.79536 27.6251 3.34477 27.6251 4.12638Z" fill="#19283B" stroke="black"/>
<path d="M43.4365 14.4389C43.4365 14.9902 43.2346 15.367 42.9599 15.611C42.676 15.8633 42.2832 16.0001 41.874 16.0001C41.4649 16.0001 41.0721 15.8633 40.7881 15.611C40.5134 15.367 40.3115 14.9902 40.3115 14.4389C40.3115 13.8868 40.5135 13.5095 40.7883 13.2652C41.0723 13.0127 41.465 12.8757 41.874 12.8757C42.2831 12.8757 42.6758 13.0127 42.9598 13.2652C43.2345 13.5095 43.4365 13.8868 43.4365 14.4389Z" fill="#19283B" stroke="black"/>
<path d="M11.1253 19.2498L11.1303 35.2496H9.37959V23.3746V22.8746H8.87959H6.12871H5.62871V23.3746V35.2496H3.87783V19.2496V18.7496H3.37783H1.12695V10.9996C1.12695 8.9374 2.68972 7.37463 4.75195 7.37463H10.2511H10.2512C12.3109 7.37463 13.8762 8.93997 13.8762 10.9996V18.7496H11.6253H11.1252L11.1253 19.2498Z" fill="#19283B" stroke="black"/>
<path d="M29.0043 11.7589L29.006 11.7702L29.0081 11.7815L31.6459 25.6255H29.5019H29.0019V26.1255V35.2496H27.251V26.1255V25.6255H26.751H24.0027H23.5027V26.1255V35.2496H21.7519V26.1255V25.6255H21.2519H19.1051L21.7393 11.7873C22.1096 10.0726 23.5737 8.75134 25.3743 8.75134C27.2036 8.75134 28.7659 10.0943 29.0043 11.7589Z" fill="#19283B" stroke="black"/>
<path d="M39.6259 26.1255V25.6255H39.1259H36.875V22.0005C36.875 19.9383 38.4378 18.3755 40.5 18.3755H43.2509C45.3108 18.3755 46.8759 19.9385 46.8759 22.0005V25.6255H44.625H44.125V26.1255V35.2496H39.6259V26.1255Z" fill="#19283B" stroke="black"/>
</svg>
