<svg width="38" height="44" viewBox="0 0 38 44" fill="none" xmlns="http://www.w3.org/2000/svg">
<rect x="5" y="5" width="28" height="26" fill="white"/>
<path d="M35.7971 35.1875C36.2112 35.1875 36.6096 35.0235 36.9026 34.7305C37.1956 34.4375 37.3596 34.0391 37.3596 33.6251V6.81257C37.3557 3.49617 34.6682 0.808565 31.3516 0.804565H6.21113C3.13498 0.804565 0.640625 3.29872 0.640625 6.37507V37.6251C0.644531 40.6954 3.13282 43.1836 6.20312 43.1876H35.7971C36.6604 43.1876 37.3596 42.4884 37.3596 41.6251C37.3596 40.7618 36.6604 40.0626 35.7971 40.0626C34.5022 39.9883 33.4905 38.918 33.4905 37.6212C33.4905 36.3243 34.5022 35.254 35.7971 35.1798L35.7971 35.1875ZM6.21115 3.93755H31.3516C32.1153 3.93755 32.8497 4.24224 33.3907 4.7813C33.9297 5.3223 34.2344 6.0567 34.2344 6.82035V32.0623H6.20345C5.35775 32.0623 4.52375 32.2577 3.76595 32.6326V6.37465C3.76985 5.027 4.86359 3.93715 6.21124 3.93715L6.21115 3.93755ZM6.21115 40.0705C4.91625 39.9963 3.9045 38.926 3.9045 37.6291C3.9045 36.3323 4.9162 35.2619 6.21115 35.1877H30.8051C30.0375 36.7248 30.0375 38.5334 30.8051 40.0705H6.21115Z" fill="#192949"/>
<circle cx="11.5675" cy="17.5265" r="3.52647" fill="#192949"/>
<circle cx="11.5265" cy="9.52647" r="3.52647" fill="#192949"/>
<circle cx="11.5265" cy="25.5265" r="3.52647" fill="#192949"/>
<circle cx="27.6085" cy="17.5265" r="3.52647" fill="#192949"/>
<circle cx="19.5265" cy="17.5265" r="3.52647" fill="#192949"/>
<circle cx="27.5675" cy="9.52647" r="3.52647" fill="#192949"/>
<circle cx="27.5675" cy="25.5265" r="3.52647" fill="#192949"/>
</svg>
