<svg width="34" height="36" viewBox="0 0 34 36" fill="none" xmlns="http://www.w3.org/2000/svg">
<path d="M33.1099 16.2451L18.1099 1.24507C17.5268 0.673194 16.593 0.673194 16.0099 1.24507L1.00985 16.2451C0.616106 16.6669 0.497983 17.28 0.709855 17.8182C0.921727 18.3563 1.42237 18.7238 1.99985 18.7651H3.82985V33.7651C3.82985 34.1626 3.98735 34.5451 4.2686 34.8263C4.54985 35.1076 4.93235 35.2651 5.32984 35.2651H13.7298V25.1999C13.7298 24.3712 14.4011 23.6999 15.2298 23.6999H18.8598C19.2573 23.6999 19.6398 23.8574 19.9211 24.1387C20.2023 24.4199 20.3598 24.8024 20.3598 25.1999V35.2502H28.7598C29.1573 35.2502 29.5398 35.0927 29.821 34.8114C30.1023 34.5302 30.2598 34.1477 30.2598 33.7502V18.7502H32.1648C32.7273 18.6902 33.2073 18.317 33.4079 17.7883C33.6067 17.2595 33.4923 16.6614 33.1098 16.2452L33.1099 16.2451Z" fill="#19283B"/>
</svg>
