<svg width="137" height="37" viewBox="0 0 137 37" fill="none" xmlns="http://www.w3.org/2000/svg">
    <path d="M41.8322 13.7246C41.0942 13.5251 40.2964 13.4254 39.4388 13.4254C37.883 13.4254 36.7062 13.8044 35.9084 14.5623C35.1306 15.3003 34.7416 16.3175 34.7416 17.6139V18.5115H32.8269V20.7553H34.7416V30H37.5838V20.7553H41.8621V18.5115H37.5838V17.5242C37.5838 16.9458 37.8032 16.497 38.242 16.1779C38.7008 15.8588 39.3191 15.6992 40.097 15.6992C40.5756 15.6992 41.1541 15.779 41.8322 15.9385V13.7246ZM43.1495 30H46.0217V18.5115H43.1495V30ZM44.5856 16.5668C44.087 16.5668 43.6581 16.3873 43.2991 16.0283C42.9401 15.6693 42.7606 15.2404 42.7606 14.7418C42.7606 14.2232 42.9401 13.7944 43.2991 13.4553C43.6581 13.0963 44.087 12.9168 44.5856 12.9168C45.1042 12.9168 45.533 13.0963 45.8721 13.4553C46.2311 13.7944 46.4106 14.2232 46.4106 14.7418C46.4106 15.2404 46.2311 15.6693 45.8721 16.0283C45.533 16.3873 45.1042 16.5668 44.5856 16.5668ZM47.6106 18.5115V30H50.4528V21.5631C51.6096 21.1443 52.5371 20.9348 53.2352 20.9348C53.9133 20.9348 54.4219 21.1443 54.761 21.5631C55.12 21.962 55.2995 22.5305 55.2995 23.2684V30H58.1417V23.6275C58.1417 22.5305 58.032 21.6529 57.8126 20.9947C57.6132 20.3365 57.2542 19.778 56.7356 19.3193C56.1173 18.7807 55.1998 18.5115 53.9831 18.5115C52.6867 18.5115 51.3603 18.8406 50.004 19.4988V18.5115H47.6106ZM66.4769 27.2475C65.9982 27.5268 65.5993 27.7063 65.2802 27.7861C64.981 27.8658 64.5921 27.9057 64.1134 27.9057C63.515 27.9057 63.0463 27.7761 62.7073 27.5168C62.3682 27.2575 62.1987 26.8985 62.1987 26.4398C62.1987 25.981 62.3782 25.632 62.7372 25.3926C63.0962 25.1533 63.6646 25.0037 64.4425 24.9439L66.4769 24.7943V27.2475ZM60.2241 21.0246C60.6429 20.865 61.1914 20.7354 61.8696 20.6357C62.5676 20.5359 63.176 20.4861 63.6946 20.4861C64.4724 20.4861 65.0409 20.5459 65.3999 20.6656C65.7589 20.7853 66.0082 21.0047 66.1478 21.3238C66.2874 21.603 66.3573 22.1116 66.3573 22.8496L64.1134 22.9693C62.5776 23.049 61.3909 23.4081 60.5532 24.0463C59.7354 24.6646 59.3265 25.5322 59.3265 26.6492C59.3265 27.6664 59.6955 28.4941 60.4335 29.1324C61.1715 29.7507 62.1588 30.0598 63.3954 30.0598C64.7317 30.0598 65.8486 29.7008 66.7462 28.9828L66.7761 30H69.3491V22.7299C69.3491 21.1742 68.9402 20.0572 68.1224 19.3791C67.3246 18.681 65.9982 18.332 64.1433 18.332C63.6247 18.332 62.9665 18.3918 62.1687 18.5115C61.3909 18.6112 60.7426 18.7508 60.2241 18.9303V21.0246ZM70.5458 18.5115V30H73.388V21.5631C74.5448 21.1443 75.4723 20.9348 76.1704 20.9348C76.8485 20.9348 77.3571 21.1443 77.6962 21.5631C78.0552 21.962 78.2347 22.5305 78.2347 23.2684V30H81.0769V23.6275C81.0769 22.5305 80.9672 21.6529 80.7478 20.9947C80.5484 20.3365 80.1893 19.778 79.6708 19.3193C79.0525 18.7807 78.135 18.5115 76.9183 18.5115C75.6219 18.5115 74.2955 18.8406 72.9392 19.4988V18.5115H70.5458ZM91.5363 18.9004C90.6388 18.5215 89.5318 18.332 88.2154 18.332C86.3605 18.332 84.9045 18.8306 83.8474 19.8279C82.7903 20.8251 82.2617 22.2213 82.2617 24.0164C82.2617 25.8115 82.8002 27.2575 83.8773 28.3545C84.9743 29.4515 86.4203 30 88.2154 30C89.4121 30 90.5191 29.8005 91.5363 29.4016V27.1279C90.7983 27.3672 90.2498 27.5268 89.8908 27.6066C89.5517 27.6863 89.1528 27.7262 88.6941 27.7262C87.637 27.7262 86.7893 27.3872 86.1511 26.709C85.5328 26.0109 85.2236 25.1134 85.2236 24.0164C85.2236 22.8795 85.5128 22.0219 86.0912 21.4434C86.6896 20.865 87.5572 20.5758 88.6941 20.5758C89.1528 20.5758 89.5517 20.6157 89.8908 20.6955C90.2498 20.7753 90.7983 20.9348 91.5363 21.1742V18.9004ZM93.1103 30H95.9824V18.5115H93.1103V30ZM94.5463 16.5668C94.0477 16.5668 93.6189 16.3873 93.2599 16.0283C92.9008 15.6693 92.7213 15.2404 92.7213 14.7418C92.7213 14.2232 92.9008 13.7944 93.2599 13.4553C93.6189 13.0963 94.0477 12.9168 94.5463 12.9168C95.0649 12.9168 95.4937 13.0963 95.8328 13.4553C96.1918 13.7944 96.3713 14.2232 96.3713 14.7418C96.3713 15.2404 96.1918 15.6693 95.8328 16.0283C95.4937 16.3873 95.0649 16.5668 94.5463 16.5668ZM107.474 27.7262C106.696 27.9257 105.549 28.0254 104.034 28.0254C101.62 28.0254 100.334 27.1578 100.174 25.4225H107.983V24.3156C107.983 22.4407 107.514 20.9747 106.577 19.9176C105.639 18.8605 104.313 18.332 102.598 18.332C101.64 18.332 100.763 18.5813 99.9648 19.0799C99.1669 19.5586 98.5187 20.2467 98.0201 21.1443C97.5215 22.0618 97.2721 23.1189 97.2721 24.3156C97.2721 26.1306 97.8406 27.5866 98.9775 28.6836C100.134 29.7607 101.69 30.2992 103.645 30.2992C105.121 30.2992 106.397 30.1496 107.474 29.8504V27.7262ZM102.657 20.5758C103.435 20.5758 104.044 20.8251 104.482 21.3238C104.921 21.8224 105.141 22.5205 105.141 23.418H100.234C100.274 22.5803 100.523 21.9022 100.982 21.3836C101.441 20.8451 101.999 20.5758 102.657 20.5758Z" fill="#19283B"/>
    <path d="M111.968 30.3291C111.509 30.3291 111.11 30.1596 110.771 29.8205C110.432 29.4814 110.262 29.0825 110.262 28.6238C110.262 28.165 110.432 27.7661 110.771 27.4271C111.11 27.088 111.509 26.9184 111.968 26.9184C112.426 26.9184 112.825 27.088 113.164 27.4271C113.503 27.7661 113.673 28.165 113.673 28.6238C113.673 29.0825 113.503 29.4814 113.164 29.8205C112.825 30.1596 112.426 30.3291 111.968 30.3291ZM115.126 29.5811C116.442 30.0399 117.659 30.2693 118.776 30.2693C120.451 30.2693 121.727 29.9601 122.605 29.3418C123.503 28.7036 123.951 27.8359 123.951 26.7389C123.951 25.981 123.802 25.3827 123.503 24.9439C123.203 24.5051 122.814 24.176 122.336 23.9566C121.857 23.7172 121.179 23.4679 120.301 23.2086L119.703 23.0291C118.766 22.7299 118.187 22.5105 117.968 22.3709C117.589 22.1715 117.399 21.9122 117.399 21.593C117.399 21.2739 117.549 21.0445 117.848 20.9049C118.227 20.7454 118.815 20.6656 119.613 20.6656C120.311 20.6656 121.289 20.8351 122.545 21.1742V18.7508C121.388 18.4716 120.401 18.332 119.583 18.332C117.928 18.332 116.701 18.6112 115.903 19.1697C115.106 19.7082 114.707 20.4761 114.707 21.4734C114.707 22.9493 115.445 24.0164 116.921 24.6746C117.519 24.9538 118.257 25.2231 119.135 25.4824C119.912 25.7417 120.441 25.9411 120.72 26.0807C121.039 26.2204 121.199 26.4298 121.199 26.709C121.199 27.088 121.029 27.3672 120.69 27.5467C120.371 27.7262 119.783 27.816 118.925 27.816C118.008 27.816 116.741 27.5368 115.126 26.9783V29.5811ZM125.137 13.5451V30H128.009V13.5451H125.137ZM128.308 23.6873L132.856 30H136.326L131.689 23.6873L136.117 18.5115H132.647L128.308 23.6873Z" fill="#1EAEE1"/>
    <path d="M17.9261 21.3444H2.88856C1.27437 21.3444 0 22.6187 0 24.2329V33.4083C0 35.0225 1.27437 36.2969 2.88856 36.2969H17.9261C19.5403 36.2969 20.8146 35.0225 20.8146 33.4083V24.148C20.8146 22.6187 19.5403 21.3444 17.9261 21.3444ZM16.8216 30.2649C15.972 30.2649 15.2924 29.5853 15.2924 28.7357C15.2924 27.8861 15.972 27.2064 16.8216 27.2064C17.6712 27.2064 18.3509 27.8861 18.3509 28.7357C18.2659 29.5853 17.5862 30.2649 16.8216 30.2649Z" fill="#1EAEE1"/>
    <path d="M10.365 17.1814C13.1803 17.1814 15.4625 14.8992 15.4625 12.0839C15.4625 9.26866 13.1803 6.98645 10.365 6.98645C7.54979 6.98645 5.26758 9.26866 5.26758 12.0839C5.26758 14.8992 7.54979 17.1814 10.365 17.1814Z" fill="#FFD550"/>
</svg>
