<svg width="40" height="34" viewBox="0 0 40 34" fill="none" xmlns="http://www.w3.org/2000/svg">
<path d="M37.3326 9.58269H33L31.9174 3.73269C31.2674 0.917359 28.3424 0.917358 26.7174 0.917358H13.2826C11.6576 0.917358 8.625 0.917358 8.08264 3.73472L7 9.58264H2.66736C1.475 9.58264 0.5 10.5576 0.5 11.75C0.5 12.9424 1.475 13.9174 2.66736 13.9174H4.61736C4.075 14.4577 3.75 15.2174 3.75 16.0827V24.7501C3.75 26.4827 5.15764 28.0001 7 28.0001H8.08264V30.7077C8.08264 32.2251 9.275 33.4153 10.7903 33.4153C12.3076 33.4153 13.4979 32.223 13.4979 30.7077L13.5 28.0001H26.5V30.7077C26.5 32.2251 27.6923 33.4153 29.2076 33.4153C30.725 33.4153 31.9152 32.223 31.9152 30.7077L31.9173 28.0001H32.9999C34.8423 28.0001 36.2499 26.4827 36.2499 24.7501V16.0827C36.2499 15.2153 35.9249 14.4577 35.3825 13.9153L37.3325 13.9174C38.5249 13.9174 39.4999 12.9424 39.4999 11.75C39.4999 10.5576 38.5249 9.58264 37.3325 9.58264L37.3326 9.58269ZM27.8 5.25005L29.3174 12.8327H10.6826L12.2 5.25005H27.8ZM10.25 20.4174C9.05764 20.4174 8.08264 19.4424 8.08264 18.2501C8.08264 17.0577 9.05764 16.0827 10.25 16.0827C11.4424 16.0827 12.4174 17.0577 12.4174 18.2501C12.4174 19.4424 11.4424 20.4174 10.25 20.4174ZM29.75 20.4174C28.5576 20.4174 27.5826 19.4424 27.5826 18.2501C27.5826 17.0577 28.5576 16.0827 29.75 16.0827C30.9424 16.0827 31.9174 17.0577 31.9174 18.2501C31.9174 19.4424 30.9424 20.4174 29.75 20.4174Z" fill="#19283B"/>
</svg>
