<svg width="122" height="33" viewBox="0 0 122 33" fill="currentColor" xmlns="http://www.w3.org/2000/svg">
<path d="M37.2219 12.5182C36.5653 12.3407 35.8554 12.252 35.0923 12.252C33.708 12.252 32.6609 12.5892 31.951 13.2636C31.2588 13.9202 30.9128 14.8253 30.9128 15.9789V16.7775H29.209V18.7741H30.9128V27H33.4418V18.7741H37.2486V16.7775H33.4418V15.899C33.4418 15.3844 33.637 14.9851 34.0274 14.7011C34.4356 14.4171 34.9858 14.2752 35.6779 14.2752C36.1039 14.2752 36.6185 14.3462 37.2219 14.4881V12.5182ZM38.3941 27H40.9497V16.7775H38.3941V27ZM39.6719 15.0472C39.2282 15.0472 38.8467 14.8875 38.5272 14.568C38.2077 14.2485 38.048 13.867 38.048 13.4233C38.048 12.9619 38.2077 12.5803 38.5272 12.2786C38.8467 11.9591 39.2282 11.7994 39.6719 11.7994C40.1333 11.7994 40.5149 11.9591 40.8166 12.2786C41.1361 12.5803 41.2958 12.9619 41.2958 13.4233C41.2958 13.867 41.1361 14.2485 40.8166 14.568C40.5149 14.8875 40.1333 15.0472 39.6719 15.0472ZM42.3635 16.7775V27H44.8925V19.4929C45.9219 19.1202 46.7471 18.9338 47.3683 18.9338C47.9717 18.9338 48.4242 19.1202 48.7259 19.4929C49.0454 19.8478 49.2051 20.3536 49.2051 21.0103V27H51.7341V21.3297C51.7341 20.3536 51.6365 19.5727 51.4413 18.9871C51.2638 18.4014 50.9444 17.9045 50.4829 17.4963C49.9328 17.0171 49.1164 16.7775 48.0338 16.7775C46.8802 16.7775 45.7 17.0704 44.4932 17.656V16.7775H42.3635ZM59.1508 24.5509C58.7248 24.7993 58.3699 24.9591 58.0859 25.03C57.8197 25.101 57.4736 25.1365 57.0477 25.1365C56.5153 25.1365 56.0982 25.0212 55.7965 24.7905C55.4948 24.5597 55.344 24.2403 55.344 23.8321C55.344 23.4239 55.5037 23.1133 55.8231 22.9004C56.1426 22.6874 56.6484 22.5543 57.3405 22.5011L59.1508 22.3679V24.5509ZM53.587 19.0137C53.9597 18.8717 54.4477 18.7564 55.0511 18.6676C55.6723 18.5789 56.2136 18.5345 56.675 18.5345C57.3672 18.5345 57.873 18.5878 58.1924 18.6943C58.5119 18.8007 58.7337 18.996 58.8579 19.2799C58.9822 19.5284 59.0443 19.9809 59.0443 20.6376L57.0477 20.7441C55.6812 20.8151 54.6252 21.1345 53.8798 21.7024C53.1522 22.2526 52.7884 23.0246 52.7884 24.0184C52.7884 24.9236 53.1167 25.6601 53.7733 26.228C54.43 26.7782 55.3085 27.0532 56.4088 27.0532C57.5979 27.0532 58.5917 26.7338 59.3904 26.0949L59.417 27H61.7064V20.5311C61.7064 19.1468 61.3426 18.153 60.6149 17.5496C59.905 16.9284 58.7248 16.6178 57.0743 16.6178C56.6129 16.6178 56.0272 16.6711 55.3173 16.7775C54.6252 16.8663 54.0484 16.9905 53.587 17.1502V19.0137ZM62.7712 16.7775V27H65.3002V19.4929C66.3296 19.1202 67.1548 18.9338 67.776 18.9338C68.3794 18.9338 68.8319 19.1202 69.1336 19.4929C69.4531 19.8478 69.6128 20.3536 69.6128 21.0103V27H72.1418V21.3297C72.1418 20.3536 72.0442 19.5727 71.849 18.9871C71.6715 18.4014 71.3521 17.9045 70.8906 17.4963C70.3405 17.0171 69.5241 16.7775 68.4415 16.7775C67.2879 16.7775 66.1077 17.0704 64.9009 17.656V16.7775H62.7712ZM81.4485 17.1236C80.6499 16.7864 79.6649 16.6178 78.4936 16.6178C76.8431 16.6178 75.5476 17.0615 74.607 17.9489C73.6663 18.8362 73.196 20.0785 73.196 21.6758C73.196 23.2731 73.6752 24.5597 74.6336 25.5358C75.6097 26.5119 76.8964 27 78.4936 27C79.5585 27 80.5434 26.8225 81.4485 26.4676V24.4444C80.7919 24.6574 80.3038 24.7993 79.9844 24.8703C79.6827 24.9413 79.3277 24.9768 78.9196 24.9768C77.9789 24.9768 77.2247 24.6751 76.6568 24.0717C76.1066 23.4505 75.8315 22.6519 75.8315 21.6758C75.8315 20.6642 76.0889 19.9011 76.6035 19.3864C77.1359 18.8717 77.908 18.6144 78.9196 18.6144C79.3277 18.6144 79.6827 18.6499 79.9844 18.7209C80.3038 18.7919 80.7919 18.9338 81.4485 19.1468V17.1236ZM82.8491 27H85.4047V16.7775H82.8491V27ZM84.1269 15.0472C83.6832 15.0472 83.3016 14.8875 82.9822 14.568C82.6627 14.2485 82.503 13.867 82.503 13.4233C82.503 12.9619 82.6627 12.5803 82.9822 12.2786C83.3016 11.9591 83.6832 11.7994 84.1269 11.7994C84.5883 11.7994 84.9699 11.9591 85.2716 12.2786C85.591 12.5803 85.7507 12.9619 85.7507 13.4233C85.7507 13.867 85.591 14.2485 85.2716 14.568C84.9699 14.8875 84.5883 15.0472 84.1269 15.0472ZM95.63 24.9768C94.9379 25.1543 93.9174 25.243 92.5686 25.243C90.4212 25.243 89.2765 24.471 89.1345 22.927H96.0826V21.942C96.0826 20.2738 95.6655 18.9693 94.8314 18.0287C93.9973 17.0881 92.8171 16.6178 91.2908 16.6178C90.4389 16.6178 89.6581 16.8397 88.9482 17.2833C88.2383 17.7093 87.6615 18.3216 87.2178 19.1202C86.7741 19.9366 86.5523 20.8772 86.5523 21.942C86.5523 23.557 87.0581 24.8526 88.0697 25.8287C89.099 26.787 90.4833 27.2662 92.2226 27.2662C93.5359 27.2662 94.6717 27.1331 95.63 26.8669V24.9768ZM91.3441 18.6144C92.0362 18.6144 92.5775 18.8362 92.9679 19.2799C93.3584 19.7236 93.5536 20.3448 93.5536 21.1434H89.1878C89.2233 20.398 89.4451 19.7946 89.8533 19.3332C90.2615 18.854 90.7584 18.6144 91.3441 18.6144Z" fill="white"/>
<path d="M99.6286 27.2928C99.2204 27.2928 98.8654 27.142 98.5637 26.8403C98.262 26.5386 98.1112 26.1836 98.1112 25.7754C98.1112 25.3672 98.262 25.0123 98.5637 24.7106C98.8654 24.4089 99.2204 24.258 99.6286 24.258C100.037 24.258 100.392 24.4089 100.693 24.7106C100.995 25.0123 101.146 25.3672 101.146 25.7754C101.146 26.1836 100.995 26.5386 100.693 26.8403C100.392 27.142 100.037 27.2928 99.6286 27.2928ZM102.439 26.6273C103.61 27.0355 104.692 27.2396 105.686 27.2396C107.177 27.2396 108.313 26.9645 109.094 26.4143C109.892 25.8464 110.292 25.0744 110.292 24.0983C110.292 23.4239 110.159 22.8915 109.892 22.5011C109.626 22.1106 109.28 21.8178 108.854 21.6226C108.428 21.4096 107.825 21.1878 107.044 20.957L106.512 20.7973C105.677 20.5311 105.163 20.3359 104.968 20.2116C104.63 20.0342 104.462 19.8035 104.462 19.5195C104.462 19.2355 104.595 19.0315 104.861 18.9072C105.198 18.7652 105.722 18.6943 106.432 18.6943C107.053 18.6943 107.922 18.8451 109.041 19.1468V16.9905C108.011 16.742 107.133 16.6178 106.405 16.6178C104.932 16.6178 103.841 16.8663 103.131 17.3632C102.421 17.8424 102.066 18.5257 102.066 19.413C102.066 20.7263 102.722 21.6758 104.036 22.2615C104.568 22.5099 105.225 22.7495 106.006 22.9802C106.698 23.2109 107.168 23.3884 107.417 23.5127C107.701 23.6369 107.843 23.8232 107.843 24.0717C107.843 24.4089 107.692 24.6574 107.39 24.8171C107.106 24.9768 106.583 25.0567 105.819 25.0567C105.003 25.0567 103.876 24.8082 102.439 24.3113V26.6273ZM111.347 12.3585V27H113.902V12.3585H111.347ZM114.169 21.383L118.215 27H121.303L117.177 21.383L121.117 16.7775H118.029L114.169 21.383Z" fill="white"/>
<path d="M15.9506 18.9922H2.57024C1.13393 18.9922 0 20.1261 0 21.5624V29.7267C0 31.163 1.13393 32.2969 2.57024 32.2969H15.9506C17.3869 32.2969 18.5208 31.163 18.5208 29.7267V21.4868C18.5208 20.1261 17.3869 18.9922 15.9506 18.9922ZM14.9678 26.9297C14.2119 26.9297 13.6071 26.3249 13.6071 25.569C13.6071 24.813 14.2119 24.2083 14.9678 24.2083C15.7238 24.2083 16.3286 24.813 16.3286 25.569C16.253 26.3249 15.6482 26.9297 14.9678 26.9297Z" fill="white"/>
<path d="M9.2226 15.288C11.7276 15.288 13.7583 13.2573 13.7583 10.7523C13.7583 8.24726 11.7276 6.21655 9.2226 6.21655C6.7176 6.21655 4.68689 8.24726 4.68689 10.7523C4.68689 13.2573 6.7176 15.288 9.2226 15.288Z" fill="white"/>
</svg>
