<svg width="38" height="34" viewBox="0 0 38 34" fill="none" xmlns="http://www.w3.org/2000/svg">
<path d="M33.1132 7.25479H27.2618V4.79961C27.2618 3.70414 26.8254 2.65618 26.0535 1.88136C25.2787 1.10654 24.2278 0.673111 23.1353 0.673111H14.8733C13.7779 0.670142 12.7269 1.10358 11.9491 1.87839C11.1743 2.65321 10.7378 3.70414 10.7378 4.79968V7.24597H4.8864C3.79093 7.243 2.73704 7.67644 1.96215 8.45422C1.18733 9.22904 0.753898 10.2829 0.759826 11.3814V29.1198C0.759826 31.3998 2.6064 33.2464 4.8864 33.2464H33.1136C34.209 33.2464 35.257 32.813 36.0318 32.0382C36.8066 31.2633 37.2401 30.2154 37.2401 29.1199V11.3815C37.2401 10.286 36.8066 9.23808 36.0318 8.46326C35.257 7.68844 34.209 7.25501 33.1136 7.25501L33.1132 7.25479ZM23.9932 7.25479H14.1132V4.79961C14.1132 4.34242 14.4843 3.97136 14.9414 3.97136H23.135C23.5892 3.97433 23.9543 4.34542 23.9543 4.79961L23.9932 7.25479Z" fill="#19283B"/>
</svg>
