<svg width="34" height="34" viewBox="0 0 34 34" fill="none" xmlns="http://www.w3.org/2000/svg">
<path d="M20.9952 30.2221C18.9513 30.2221 17.2791 28.5222 17.2791 26.4441C17.2791 24.3661 18.9512 22.6661 20.9952 22.6661C23.0392 22.6661 24.7113 24.3661 24.7113 26.4441C24.7113 28.5222 23.0392 30.2221 20.9952 30.2221V30.2221ZM13.5634 3.77821C15.6073 3.77821 17.2795 5.47813 17.2795 7.55621C17.2795 9.63418 15.6074 11.3342 13.5634 11.3342C11.5194 11.3342 9.84734 9.63428 9.84734 7.55621C9.84734 5.47824 11.5194 3.77821 13.5634 3.77821ZM32.142 24.5551H28.24C27.4963 21.3443 24.5239 18.8881 20.9942 18.8881C17.4641 18.8881 14.6779 21.3442 13.7484 24.5551H1.85796C0.743723 24.5551 0 25.3113 0 26.4441C0 27.5769 0.743723 28.333 1.85796 28.333H13.7484C14.4921 31.5438 17.4644 34 20.9942 34C24.5243 34 27.3105 31.544 28.24 28.333H32.142C33.2563 28.333 34 27.5769 34 26.4441C34 25.3113 33.0717 24.5551 32.142 24.5551ZM1.85933 9.44486H6.31758C7.06131 12.6557 10.0337 15.1119 13.5634 15.1119C17.0932 15.1119 19.8797 12.6558 20.8092 9.44486H32.1417C33.2559 9.44486 33.9997 8.68874 33.9997 7.55593C33.9997 6.42312 33.2559 5.667 32.1417 5.667H20.8092C20.0655 2.45618 17.0932 0 13.5634 0C10.0337 0 7.24711 2.45605 6.31758 5.667H1.85933C0.745083 5.667 0.00135995 6.42312 0.00135995 7.55593C0.00135995 8.68874 0.745083 9.44486 1.85933 9.44486" fill="#1EAEE1"/>
</svg>
