<svg width="37" height="44" viewBox="0 0 37 44" fill="none" xmlns="http://www.w3.org/2000/svg">
<path d="M35.1565 35.1875C35.5706 35.1875 35.969 35.0235 36.262 34.7305C36.5549 34.4375 36.719 34.0391 36.719 33.6251V6.81257C36.7151 3.49617 34.0276 0.808565 30.711 0.804565H5.5705C2.49435 0.804565 0 3.29872 0 6.37507V37.6251C0.003906 40.6954 2.4922 43.1836 5.5625 43.1876H35.1565C36.0198 43.1876 36.719 42.4884 36.719 41.6251C36.719 40.7618 36.0198 40.0626 35.1565 40.0626C33.8616 39.9883 32.8498 38.918 32.8498 37.6212C32.8498 36.3243 33.8616 35.254 35.1565 35.1798L35.1565 35.1875ZM5.57052 3.93755H30.711C31.4747 3.93755 32.2091 4.24224 32.7501 4.7813C33.2891 5.3223 33.5938 6.0567 33.5938 6.82035V32.0623H5.56282C4.71712 32.0623 3.88312 32.2577 3.12532 32.6326V6.37465C3.12923 5.027 4.22297 3.93715 5.57062 3.93715L5.57052 3.93755ZM5.57052 40.0705C4.27562 39.9963 3.26387 38.926 3.26387 37.6291C3.26387 36.3323 4.27557 35.2619 5.57052 35.1877H30.1645C29.3969 36.7248 29.3969 38.5334 30.1645 40.0705H5.57052Z" fill="#192949"/>
<circle cx="26.9679" cy="17.5265" r="3.52647" fill="#192949"/>
<circle cx="18.5675" cy="17.5265" r="3.52647" fill="#192949"/>
<circle cx="10.5675" cy="17.5265" r="3.52647" fill="#192949"/>
<circle cx="10.5265" cy="9.52647" r="3.52647" fill="#192949"/>
<circle cx="10.5265" cy="25.5265" r="3.52647" fill="#192949"/>
<circle cx="26.9269" cy="9.52647" r="3.52647" fill="#192949"/>
<circle cx="26.9269" cy="25.5265" r="3.52647" fill="#192949"/>
<circle cx="18.5265" cy="9.52647" r="3.52647" fill="#192949"/>
<circle cx="18.5265" cy="25.5265" r="3.52647" fill="#192949"/>
</svg>
