<svg width="14" height="14" viewBox="0 0 14 14" fill="none" xmlns="http://www.w3.org/2000/svg">
<path d="M4.55531 0.521802C4.92668 0.0496984 5.52048 0.0496983 5.86769 0.521802C6.23906 0.993906 6.23906 1.74877 5.86769 2.19015L3.16955 5.62015L12.7507 5.62015C13.271 5.62015 13.6917 6.15495 13.6917 6.81639C13.6917 7.47784 13.271 8.01264 12.7507 8.01264L3.19357 8.01264L5.8917 11.4426C6.26307 11.9147 6.26307 12.6696 5.8917 13.111C5.71859 13.3311 5.47101 13.4577 5.22343 13.4577C4.97585 13.4577 4.75342 13.3323 4.55516 13.111L0.27177 7.66574C0.0986562 7.44567 2.39428e-07 7.13094 2.28606e-07 6.81621C2.17784e-07 6.50147 0.0986464 6.18674 0.272735 5.96667L4.55531 0.521802Z" fill="#1EAEE1"/>
</svg>
