<svg width="122" height="33" viewBox="0 0 122 33" fill="none" xmlns="http://www.w3.org/2000/svg">
<path d="M37.2221 12.5182C36.5654 12.3407 35.8555 12.252 35.0924 12.252C33.7081 12.252 32.661 12.5892 31.9511 13.2636C31.259 13.9202 30.9129 14.8253 30.9129 15.9789V16.7775H29.2092V18.7741H30.9129V27H33.4419V18.7741H37.2487V16.7775H33.4419V15.899C33.4419 15.3844 33.6371 14.9851 34.0276 14.7011C34.4358 14.4171 34.9859 14.2752 35.6781 14.2752C36.104 14.2752 36.6187 14.3462 37.2221 14.4881V12.5182ZM38.3942 27H40.9499V16.7775H38.3942V27ZM39.6721 15.0472C39.2284 15.0472 38.8468 14.8875 38.5274 14.568C38.2079 14.2485 38.0482 13.867 38.0482 13.4233C38.0482 12.9619 38.2079 12.5803 38.5274 12.2786C38.8468 11.9591 39.2284 11.7994 39.6721 11.7994C40.1335 11.7994 40.5151 11.9591 40.8168 12.2786C41.1362 12.5803 41.2959 12.9619 41.2959 13.4233C41.2959 13.867 41.1362 14.2485 40.8168 14.568C40.5151 14.8875 40.1335 15.0472 39.6721 15.0472ZM42.3637 16.7775V27H44.8927V19.4929C45.922 19.1202 46.7473 18.9338 47.3684 18.9338C47.9718 18.9338 48.4244 19.1202 48.7261 19.4929C49.0456 19.8478 49.2053 20.3536 49.2053 21.0103V27H51.7343V21.3297C51.7343 20.3536 51.6367 19.5727 51.4414 18.9871C51.264 18.4014 50.9445 17.9045 50.4831 17.4963C49.9329 17.0171 49.1165 16.7775 48.034 16.7775C46.8804 16.7775 45.7002 17.0704 44.4934 17.656V16.7775H42.3637ZM59.1509 24.5509C58.725 24.7993 58.37 24.9591 58.0861 25.03C57.8199 25.101 57.4738 25.1365 57.0479 25.1365C56.5154 25.1365 56.0984 25.0212 55.7967 24.7905C55.495 24.5597 55.3441 24.2403 55.3441 23.8321C55.3441 23.4239 55.5038 23.1133 55.8233 22.9004C56.1427 22.6874 56.6485 22.5543 57.3407 22.5011L59.1509 22.3679V24.5509ZM53.5871 19.0137C53.9598 18.8717 54.4479 18.7564 55.0513 18.6676C55.6724 18.5789 56.2137 18.5345 56.6752 18.5345C57.3673 18.5345 57.8731 18.5878 58.1926 18.6943C58.512 18.8007 58.7339 18.996 58.8581 19.2799C58.9823 19.5284 59.0444 19.9809 59.0444 20.6376L57.0479 20.7441C55.6813 20.8151 54.6254 21.1345 53.88 21.7024C53.1523 22.2526 52.7885 23.0246 52.7885 24.0184C52.7885 24.9236 53.1168 25.6601 53.7735 26.228C54.4301 26.7782 55.3086 27.0532 56.409 27.0532C57.598 27.0532 58.5919 26.7338 59.3905 26.0949L59.4171 27H61.7065V20.5311C61.7065 19.1468 61.3427 18.153 60.6151 17.5496C59.9052 16.9284 58.725 16.6178 57.0745 16.6178C56.6131 16.6178 56.0274 16.6711 55.3175 16.7775C54.6254 16.8663 54.0486 16.9905 53.5871 17.1502V19.0137ZM62.7714 16.7775V27H65.3004V19.4929C66.3297 19.1202 67.155 18.9338 67.7761 18.9338C68.3795 18.9338 68.8321 19.1202 69.1338 19.4929C69.4532 19.8478 69.613 20.3536 69.613 21.0103V27H72.142V21.3297C72.142 20.3536 72.0443 19.5727 71.8491 18.9871C71.6717 18.4014 71.3522 17.9045 70.8908 17.4963C70.3406 17.0171 69.5242 16.7775 68.4416 16.7775C67.2881 16.7775 66.1079 17.0704 64.9011 17.656V16.7775H62.7714ZM81.4487 17.1236C80.6501 16.7864 79.6651 16.6178 78.4938 16.6178C76.8433 16.6178 75.5477 17.0615 74.6071 17.9489C73.6665 18.8362 73.1962 20.0785 73.1962 21.6758C73.1962 23.2731 73.6754 24.5597 74.6337 25.5358C75.6098 26.5119 76.8965 27 78.4938 27C79.5586 27 80.5436 26.8225 81.4487 26.4676V24.4444C80.792 24.6574 80.304 24.7993 79.9845 24.8703C79.6828 24.9413 79.3279 24.9768 78.9197 24.9768C77.9791 24.9768 77.2248 24.6751 76.6569 24.0717C76.1068 23.4505 75.8317 22.6519 75.8317 21.6758C75.8317 20.6642 76.089 19.9011 76.6037 19.3864C77.1361 18.8717 77.9081 18.6144 78.9197 18.6144C79.3279 18.6144 79.6828 18.6499 79.9845 18.7209C80.304 18.7919 80.792 18.9338 81.4487 19.1468V17.1236ZM82.8492 27H85.4048V16.7775H82.8492V27ZM84.127 15.0472C83.6833 15.0472 83.3018 14.8875 82.9823 14.568C82.6629 14.2485 82.5031 13.867 82.5031 13.4233C82.5031 12.9619 82.6629 12.5803 82.9823 12.2786C83.3018 11.9591 83.6833 11.7994 84.127 11.7994C84.5884 11.7994 84.97 11.9591 85.2717 12.2786C85.5912 12.5803 85.7509 12.9619 85.7509 13.4233C85.7509 13.867 85.5912 14.2485 85.2717 14.568C84.97 14.8875 84.5884 15.0472 84.127 15.0472ZM95.6302 24.9768C94.938 25.1543 93.9176 25.243 92.5688 25.243C90.4214 25.243 89.2767 24.471 89.1347 22.927H96.0828V21.942C96.0828 20.2738 95.6657 18.9693 94.8316 18.0287C93.9974 17.0881 92.8172 16.6178 91.291 16.6178C90.4391 16.6178 89.6582 16.8397 88.9483 17.2833C88.2384 17.7093 87.6616 18.3216 87.218 19.1202C86.7743 19.9366 86.5524 20.8772 86.5524 21.942C86.5524 23.557 87.0582 24.8526 88.0698 25.8287C89.0992 26.787 90.4835 27.2662 92.2227 27.2662C93.536 27.2662 94.6718 27.1331 95.6302 26.8669V24.9768ZM91.3442 18.6144C92.0364 18.6144 92.5777 18.8362 92.9681 19.2799C93.3585 19.7236 93.5538 20.3448 93.5538 21.1434H89.1879C89.2234 20.398 89.4453 19.7946 89.8534 19.3332C90.2616 18.854 90.7586 18.6144 91.3442 18.6144Z" fill="#19283B"/>
<path d="M99.6286 27.2928C99.2204 27.2928 98.8655 27.142 98.5638 26.8403C98.2621 26.5386 98.1112 26.1836 98.1112 25.7754C98.1112 25.3672 98.2621 25.0123 98.5638 24.7106C98.8655 24.4089 99.2204 24.258 99.6286 24.258C100.037 24.258 100.392 24.4089 100.693 24.7106C100.995 25.0123 101.146 25.3672 101.146 25.7754C101.146 26.1836 100.995 26.5386 100.693 26.8403C100.392 27.142 100.037 27.2928 99.6286 27.2928ZM102.439 26.6273C103.61 27.0355 104.693 27.2396 105.686 27.2396C107.177 27.2396 108.313 26.9645 109.094 26.4143C109.892 25.8464 110.292 25.0744 110.292 24.0983C110.292 23.4239 110.159 22.8915 109.892 22.5011C109.626 22.1106 109.28 21.8178 108.854 21.6226C108.428 21.4096 107.825 21.1878 107.044 20.957L106.512 20.7973C105.677 20.5311 105.163 20.3359 104.968 20.2116C104.63 20.0342 104.462 19.8035 104.462 19.5195C104.462 19.2355 104.595 19.0315 104.861 18.9072C105.198 18.7652 105.722 18.6943 106.432 18.6943C107.053 18.6943 107.923 18.8451 109.041 19.1468V16.9905C108.011 16.742 107.133 16.6178 106.405 16.6178C104.932 16.6178 103.841 16.8663 103.131 17.3632C102.421 17.8424 102.066 18.5257 102.066 19.413C102.066 20.7263 102.723 21.6758 104.036 22.2615C104.568 22.5099 105.225 22.7495 106.006 22.9802C106.698 23.2109 107.168 23.3884 107.417 23.5127C107.701 23.6369 107.843 23.8232 107.843 24.0717C107.843 24.4089 107.692 24.6574 107.39 24.8171C107.106 24.9768 106.583 25.0567 105.819 25.0567C105.003 25.0567 103.876 24.8082 102.439 24.3113V26.6273ZM111.347 12.3585V27H113.902V12.3585H111.347ZM114.169 21.383L118.215 27H121.303L117.177 21.383L121.117 16.7775H118.029L114.169 21.383Z" fill="#19283B"/>
<path d="M15.9506 18.9922H2.57024C1.13393 18.9922 0 20.1261 0 21.5624V29.7267C0 31.163 1.13393 32.2969 2.57024 32.2969H15.9506C17.3869 32.2969 18.5208 31.163 18.5208 29.7267V21.4868C18.5208 20.1261 17.3869 18.9922 15.9506 18.9922ZM14.9678 26.9297C14.2119 26.9297 13.6071 26.3249 13.6071 25.569C13.6071 24.813 14.2119 24.2083 14.9678 24.2083C15.7238 24.2083 16.3286 24.813 16.3286 25.569C16.253 26.3249 15.6482 26.9297 14.9678 26.9297Z" fill="#19283B"/>
<path d="M9.22321 15.288C11.7282 15.288 13.7589 13.2573 13.7589 10.7523C13.7589 8.24726 11.7282 6.21655 9.22321 6.21655C6.71821 6.21655 4.6875 8.24726 4.6875 10.7523C4.6875 13.2573 6.71821 15.288 9.22321 15.288Z" fill="#19283B"/>
</svg>
