<svg width="50" height="50" viewBox="0 0 50 50" fill="none" xmlns="http://www.w3.org/2000/svg">
<path d="M41.7971 38.1875C42.2112 38.1875 42.6096 38.0235 42.9026 37.7305C43.1956 37.4375 43.3596 37.0391 43.3596 36.6251V9.81257C43.3557 6.49617 40.6682 3.80857 37.3516 3.80457H12.2111C9.13498 3.80457 6.64062 6.29872 6.64062 9.37507V40.6251C6.64453 43.6954 9.13282 46.1836 12.2031 46.1876H41.7971C42.6604 46.1876 43.3596 45.4884 43.3596 44.6251C43.3596 43.7618 42.6604 43.0626 41.7971 43.0626C40.5022 42.9883 39.4905 41.918 39.4905 40.6212C39.4905 39.3243 40.5022 38.254 41.7971 38.1798L41.7971 38.1875ZM12.2111 6.93755H37.3516C38.1153 6.93755 38.8497 7.24224 39.3907 7.7813C39.9297 8.3223 40.2344 9.0567 40.2344 9.82035V35.0623H12.2034C11.3577 35.0623 10.5237 35.2577 9.76595 35.6326V9.37465C9.76985 8.027 10.8636 6.93715 12.2112 6.93715L12.2111 6.93755ZM12.2111 43.0705C10.9162 42.9963 9.9045 41.926 9.9045 40.6291C9.9045 39.3323 10.9162 38.2619 12.2111 38.1877H36.8051C36.0375 39.7248 36.0375 41.5334 36.8051 43.0705H12.2111Z" fill="#192949"/>
<circle cx="17" cy="28" r="4" fill="#192949"/>
<circle cx="33" cy="28" r="4" fill="#192949"/>
<circle cx="17" cy="14" r="4" fill="#192949"/>
<circle cx="33" cy="14" r="4" fill="#192949"/>
</svg>
